# Blender v3.0.1 OBJ File: 'Hex.blend'
# www.blender.org
mtllib Hex.mtl
o Circle_Circle.001
v 0.000000 -1.000000 -1.000000
v -0.866025 -1.000000 -0.500000
v -0.866025 -1.000000 0.500000
v 0.000000 -1.000000 1.000000
v 0.866025 -1.000000 0.500000
v 0.866025 -1.000000 -0.500000
v 0.000000 -1.000000 -1.000000
v -0.866025 -1.000000 -0.500000
v -0.866025 -1.000000 0.500000
v 0.000000 -1.000000 1.000000
v 0.866025 -1.000000 0.500000
v 0.866025 -1.000000 -0.500000
v 0.000000 0.000000 -1.000000
v -0.866025 0.000000 -0.500000
v -0.866025 0.000000 0.500000
v 0.000000 0.000000 1.000000
v 0.866025 0.000000 0.500000
v 0.866025 0.000000 -0.500000
vt 0.000000 0.000000
vt 0.000000 0.000000
vt 0.000000 0.000000
vt 0.000000 0.000000
vt 0.000000 0.000000
vt 0.000000 0.000000
vt 0.000000 0.000000
vt 0.000000 0.000000
vt 0.000000 0.000000
vt 0.000000 0.000000
vt 0.000000 0.000000
vt 0.000000 0.000000
vt 0.000000 0.000000
vt 0.000000 0.000000
vt 0.000000 0.000000
vt 0.000000 0.000000
vt 0.000000 0.000000
vt 0.000000 0.000000
vn 0.0000 0.0000 1.0000
vn 0.5000 0.0000 0.8660
vn 0.0000 1.0000 0.0000
vn -1.0000 0.0000 0.0000
vn 1.0000 0.0000 0.0000
vn -0.5000 0.0000 0.8660
vn -0.5000 0.0000 -0.8660
vn 0.5000 0.0000 -0.8660
usemtl None
s off
f 1/1/1 6/2/1 12/3/1 7/4/1
f 5/5/1 4/6/1 10/7/1 11/8/1
f 3/9/1 2/10/1 8/11/1 9/12/1
f 6/2/1 5/5/1 11/8/1 12/3/1
f 4/6/1 3/9/1 9/12/1 10/7/1
f 2/10/1 1/1/1 7/4/1 8/11/1
f 11/8/2 17/13/2 16/14/2 10/7/2
f 14/15/3 15/16/3 16/14/3 17/13/3 18/17/3 13/18/3
f 9/12/4 15/16/4 14/15/4 8/11/4
f 12/3/5 18/17/5 17/13/5 11/8/5
f 10/7/6 16/14/6 15/16/6 9/12/6
f 8/11/7 14/15/7 13/18/7 7/4/7
f 7/4/8 13/18/8 18/17/8 12/3/8
f 8/11/3 9/12/3 10/7/3 11/8/3 12/3/3 7/4/3
